<svg width="26" height="160" viewBox="0 0 26 160" fill="none" xmlns="http://www.w3.org/2000/svg">
<rect width="147.586" height="2" transform="matrix(0 1 1 0 8.74829 0)" fill="#AEAEAE"/>
<path d="M2.74834 144.828L10.7484 144.828L10.7484 160L2.74834 144.828Z" fill="#AEAEAE"/>
<path d="M20.9474 114.851L20.7429 113.696C20.8906 113.648 21.0313 113.571 21.1648 113.466C21.2983 113.364 21.4077 113.225 21.4929 113.049C21.5781 112.873 21.6207 112.652 21.6207 112.388C21.6207 112.027 21.5398 111.726 21.3778 111.485C21.2188 111.243 21.0128 111.123 20.7599 111.123C20.5412 111.123 20.3651 111.203 20.2315 111.365C20.098 111.527 19.9886 111.789 19.9034 112.15L19.6648 113.189C19.5256 113.792 19.3111 114.24 19.0213 114.536C18.7315 114.831 18.3551 114.979 17.892 114.979C17.5 114.979 17.1506 114.865 16.8438 114.638C16.5398 114.414 16.3011 114.1 16.1278 113.696C15.9545 113.296 15.8679 112.831 15.8679 112.303C15.8679 111.57 16.0241 110.972 16.3366 110.509C16.652 110.046 17.0994 109.762 17.679 109.657L17.8665 110.888C17.5455 110.965 17.3026 111.123 17.1378 111.361C16.9759 111.6 16.8949 111.911 16.8949 112.294C16.8949 112.712 16.9815 113.046 17.1548 113.296C17.331 113.546 17.5455 113.671 17.7983 113.671C18.0028 113.671 18.1747 113.594 18.3139 113.441C18.4531 113.29 18.5582 113.059 18.6293 112.746L18.8722 111.638C19.0114 111.027 19.233 110.576 19.5369 110.283C19.8409 109.993 20.2259 109.848 20.6918 109.848C21.0781 109.848 21.4162 109.956 21.706 110.172C21.9957 110.388 22.2216 110.686 22.3835 111.067C22.5483 111.448 22.6307 111.884 22.6307 112.375C22.6307 113.083 22.4773 113.64 22.1705 114.046C21.8665 114.452 21.4588 114.721 20.9474 114.851ZM15.8679 119.137C15.8679 118.504 16.0114 117.958 16.2983 117.501C16.5881 117.046 16.9872 116.697 17.4957 116.452C18.0043 116.208 18.5866 116.086 19.2429 116.086C19.9077 116.086 20.4943 116.211 21.0028 116.461C21.5142 116.711 21.9134 117.063 22.2003 117.518C22.4872 117.972 22.6307 118.508 22.6307 119.124C22.6307 119.621 22.5384 120.065 22.3537 120.454C22.1719 120.843 21.9162 121.157 21.5866 121.396C21.2571 121.637 20.8722 121.781 20.4318 121.826V120.586C20.7386 120.518 21.0028 120.362 21.2244 120.117C21.446 119.876 21.5568 119.552 21.5568 119.146C21.5568 118.79 21.4631 118.479 21.2756 118.212C21.0909 117.948 20.8267 117.742 20.483 117.594C20.142 117.447 19.7386 117.373 19.2727 117.373C18.7955 117.373 18.3835 117.445 18.0369 117.59C17.6903 117.735 17.4219 117.94 17.2315 118.204C17.0412 118.471 16.946 118.785 16.946 119.146C16.946 119.387 16.9901 119.606 17.0781 119.802C17.169 120.001 17.2983 120.167 17.4659 120.3C17.6335 120.437 17.8352 120.532 18.071 120.586V121.826C17.6477 121.781 17.2699 121.643 16.9375 121.413C16.6051 121.183 16.3438 120.874 16.1534 120.488C15.9631 120.104 15.8679 119.654 15.8679 119.137ZM16 123.189H22.5455V124.42H21.5057V124.488C21.858 124.608 22.1349 124.818 22.3366 125.119C22.5412 125.423 22.6435 125.767 22.6435 126.15C22.6435 126.23 22.6406 126.324 22.6349 126.431C22.6293 126.542 22.6222 126.629 22.6136 126.691H21.3949C21.4091 126.64 21.4247 126.549 21.4418 126.419C21.4616 126.288 21.4716 126.157 21.4716 126.027C21.4716 125.725 21.4077 125.457 21.2798 125.221C21.1548 124.988 20.9801 124.804 20.7557 124.667C20.5341 124.531 20.2813 124.463 19.9972 124.463H16V123.189ZM15.8679 130.317C15.8679 129.703 16.0085 129.168 16.2898 128.71C16.571 128.253 16.9645 127.898 17.4702 127.645C17.9759 127.392 18.5668 127.266 19.2429 127.266C19.9219 127.266 20.5156 127.392 21.0241 127.645C21.5327 127.898 21.9276 128.253 22.2088 128.71C22.4901 129.168 22.6307 129.703 22.6307 130.317C22.6307 130.93 22.4901 131.466 22.2088 131.923C21.9276 132.381 21.5327 132.736 21.0241 132.989C20.5156 133.241 19.9219 133.368 19.2429 133.368C18.5668 133.368 17.9759 133.241 17.4702 132.989C16.9645 132.736 16.571 132.381 16.2898 131.923C16.0085 131.466 15.8679 130.93 15.8679 130.317ZM16.9375 130.321C16.9375 130.719 17.0426 131.048 17.2528 131.31C17.4631 131.571 17.7429 131.764 18.0923 131.889C18.4418 132.017 18.8267 132.081 19.2472 132.081C19.6648 132.081 20.0483 132.017 20.3977 131.889C20.75 131.764 21.0327 131.571 21.2457 131.31C21.4588 131.048 21.5653 130.719 21.5653 130.321C21.5653 129.92 21.4588 129.588 21.2457 129.324C21.0327 129.063 20.75 128.868 20.3977 128.74C20.0483 128.615 19.6648 128.553 19.2472 128.553C18.8267 128.553 18.4418 128.615 18.0923 128.74C17.7429 128.868 17.4631 129.063 17.2528 129.324C17.0426 129.588 16.9375 129.92 16.9375 130.321ZM24.7273 136.064H16V134.79H24.7273V136.064ZM24.7273 139.053H16V137.778H24.7273V139.053Z" fill="#AEAEAE"/>
</svg>
