<svg width="31" height="31" viewBox="0 0 31 31" fill="none" xmlns="http://www.w3.org/2000/svg">
<path d="M25.0034 15.7942L16.0034 30.7942L7.00342 15.7942L25.0034 15.7942Z" fill="#AEAEAE"/>
<path d="M5.85121 4.05256L4.69638 4.2571C4.64808 4.10937 4.57138 3.96875 4.46626 3.83523C4.36399 3.7017 4.22479 3.59233 4.04865 3.5071C3.87251 3.42187 3.65234 3.37926 3.38814 3.37926C3.02734 3.37926 2.72621 3.46023 2.48473 3.62216C2.24325 3.78125 2.12251 3.98722 2.12251 4.24006C2.12251 4.45881 2.20348 4.63494 2.36541 4.76847C2.52734 4.90199 2.78871 5.01136 3.1495 5.09659L4.18928 5.33523C4.79155 5.47443 5.24041 5.68892 5.53587 5.97869C5.83132 6.26847 5.97905 6.64489 5.97905 7.10795C5.97905 7.5 5.86541 7.84943 5.63814 8.15625C5.41371 8.46023 5.09979 8.69886 4.69638 8.87216C4.29581 9.04545 3.83132 9.1321 3.30291 9.1321C2.56996 9.1321 1.97195 8.97585 1.50888 8.66335C1.04581 8.34801 0.761719 7.90057 0.656605 7.32102L1.88814 7.13352C1.96484 7.45455 2.12251 7.69744 2.36115 7.86222C2.59979 8.02415 2.91087 8.10511 3.29439 8.10511C3.712 8.10511 4.04581 8.01847 4.29581 7.84517C4.54581 7.66903 4.67081 7.45455 4.67081 7.2017C4.67081 6.99716 4.59411 6.82528 4.4407 6.68608C4.29013 6.54687 4.05859 6.44176 3.74609 6.37074L2.63814 6.12784C2.02734 5.98864 1.57564 5.76705 1.28303 5.46307C0.993253 5.15909 0.848366 4.77415 0.848366 4.30824C0.848366 3.92187 0.956321 3.58381 1.17223 3.29403C1.38814 3.00426 1.68643 2.77841 2.06712 2.61648C2.4478 2.4517 2.88388 2.36932 3.37536 2.36932C4.08274 2.36932 4.63956 2.52273 5.04581 2.82955C5.45206 3.13352 5.72053 3.54119 5.85121 4.05256ZM10.1371 9.1321C9.50355 9.1321 8.9581 8.98864 8.50071 8.7017C8.04616 8.41193 7.69673 8.01278 7.45241 7.50426C7.2081 6.99574 7.08594 6.41335 7.08594 5.7571C7.08594 5.09233 7.21094 4.50568 7.46094 3.99716C7.71094 3.4858 8.06321 3.08665 8.51776 2.79972C8.9723 2.51278 9.50781 2.36932 10.1243 2.36932C10.6214 2.36932 11.0646 2.46165 11.4538 2.64631C11.843 2.82812 12.157 3.08381 12.3956 3.41335C12.6371 3.7429 12.7805 4.12784 12.826 4.56818H11.5859C11.5178 4.26136 11.3615 3.99716 11.1172 3.77557C10.8757 3.55398 10.5518 3.44318 10.1456 3.44318C9.79048 3.44318 9.4794 3.53693 9.21236 3.72443C8.94815 3.90909 8.74219 4.1733 8.59446 4.51705C8.44673 4.85795 8.37287 5.26136 8.37287 5.72727C8.37287 6.20455 8.44531 6.61648 8.5902 6.96307C8.73509 7.30966 8.93963 7.57812 9.20384 7.76847C9.47088 7.95881 9.7848 8.05398 10.1456 8.05398C10.3871 8.05398 10.6058 8.00994 10.8018 7.92188C11.0007 7.83097 11.1669 7.7017 11.3004 7.53409C11.4368 7.36648 11.532 7.16477 11.5859 6.92898H12.826C12.7805 7.35227 12.6428 7.73011 12.4126 8.0625C12.1825 8.39489 11.8743 8.65625 11.4879 8.84659C11.1044 9.03693 10.6541 9.1321 10.1371 9.1321ZM14.1886 9V2.45455H15.4201V3.49432H15.4883C15.6076 3.14205 15.8178 2.86506 16.119 2.66335C16.4229 2.45881 16.7667 2.35653 17.1502 2.35653C17.2298 2.35653 17.3235 2.35937 17.4315 2.36506C17.5423 2.37074 17.6289 2.37784 17.6914 2.38636V3.60511C17.6403 3.59091 17.5494 3.57528 17.4187 3.55824C17.288 3.53835 17.1573 3.52841 17.0266 3.52841C16.7255 3.52841 16.457 3.59233 16.2212 3.72017C15.9883 3.84517 15.8036 4.01989 15.6673 4.24432C15.5309 4.46591 15.4627 4.71875 15.4627 5.00284V9H14.1886ZM21.3168 9.1321C20.7031 9.1321 20.1676 8.99148 19.7102 8.71023C19.2528 8.42898 18.8977 8.03551 18.6449 7.52983C18.392 7.02415 18.2656 6.43324 18.2656 5.7571C18.2656 5.07812 18.392 4.48437 18.6449 3.97585C18.8977 3.46733 19.2528 3.07244 19.7102 2.79119C20.1676 2.50994 20.7031 2.36932 21.3168 2.36932C21.9304 2.36932 22.4659 2.50994 22.9233 2.79119C23.3807 3.07244 23.7358 3.46733 23.9886 3.97585C24.2415 4.48437 24.3679 5.07812 24.3679 5.7571C24.3679 6.43324 24.2415 7.02415 23.9886 7.52983C23.7358 8.03551 23.3807 8.42898 22.9233 8.71023C22.4659 8.99148 21.9304 9.1321 21.3168 9.1321ZM21.321 8.0625C21.7188 8.0625 22.0483 7.95739 22.3097 7.74716C22.571 7.53693 22.7642 7.2571 22.8892 6.90767C23.017 6.55824 23.081 6.1733 23.081 5.75284C23.081 5.33523 23.017 4.9517 22.8892 4.60227C22.7642 4.25 22.571 3.96733 22.3097 3.75426C22.0483 3.54119 21.7188 3.43466 21.321 3.43466C20.9205 3.43466 20.5881 3.54119 20.3239 3.75426C20.0625 3.96733 19.8679 4.25 19.7401 4.60227C19.6151 4.9517 19.5526 5.33523 19.5526 5.75284C19.5526 6.1733 19.6151 6.55824 19.7401 6.90767C19.8679 7.2571 20.0625 7.53693 20.3239 7.74716C20.5881 7.95739 20.9205 8.0625 21.321 8.0625ZM27.0643 0.272727V9H25.7901V0.272727H27.0643ZM30.0526 0.272727V9H28.7784V0.272727H30.0526Z" fill="#AEAEAE"/>
</svg>
