<?xml version="1.0" encoding="utf-8"?>
<!-- Generator: Adobe Illustrator 24.2.3, SVG Export Plug-In . SVG Version: 6.00 Build 0)  -->
<svg version="1.1" id="design" xmlns="http://www.w3.org/2000/svg" xmlns:xlink="http://www.w3.org/1999/xlink" x="0px" y="0px"
	 viewBox="0 0 480 496" style="enable-background:new 0 0 480 496;" xml:space="preserve">
<style type="text/css">
	.st0{fill:#FFFFFF;}
	.st1{clip-path:url(#SVGID_2_);}
	.st2{fill:#1E1E12;}
	.st3{fill:#71ADBD;}
	.st4{clip-path:url(#SVGID_6_);}
	.st5{fill:#AA8657;}
	.st6{fill:#231815;}
	.st7{fill:#7E1E22;}
</style>
<g>
	<g>
		<g>
			<path d="M72.52,416.65c7.64-4.51,15.78-12.09,15.78-24.29c0-13.4-9.89-26.15-23.5-32.01c0.09-1.52,0.19-3.13,0.32-3.59
				c0.15-0.25,0.22-0.51,0.24-0.77c0.07-1.01-2.36-5.06-5.3-5.06c-0.66,0-2.31,0.99-2.31,1.65c0,0.77,0.11,2.64,0.11,5.49v0.16
				c-3.52-0.93-6.59-1.15-8.35-1.15c-3.19,0-5.93,0.66-7.47,3.41c-1.76,3.08-4.61,4.94-4.61,9.12c0,9.56,17.36,37.36,20.1,54.91
				c0.11,2.05,0.21,4.03,0.2,5.84c-3.12-1.23-6.03-2.53-8-4.5c-0.22-0.55-0.55-0.77-0.88-0.77c-0.88,0-2.2,1.87-2.2,3.85
				c0,1.32,0.88,2.75,1.54,3.63c1.55,2.18,4.96,4.05,9.4,5.11c-0.04,3.16-0.43,3.58-0.5,4.01c-0.09,0.25-0.13,0.49-0.13,0.73
				c-0.02,1.33,3.42,4.33,5.63,4.33c0.55,0,2.42-0.55,2.42-1.65c0-0.53-0.32-1.57-0.36-6.5c0.44,0.01,0.89,0.02,1.35,0.02
				c14.61,0,23.07-5.71,23.07-12.2C89.07,419.17,78.19,416.76,72.52,416.65z M57.43,399.94v8.94c0,0.35-0.06,0.6-0.18,0.6
				c-0.06,0-0.13-0.1-0.17-0.34c-2.82-12.62-13.6-37.67-13.6-42.38c0-2.09,1.98-2.42,4.29-2.42c3.08,0,6.81,0.55,10.04,1.56
				C57.68,374.1,57.43,384.07,57.43,399.94z M64.35,399.18c0-14.32,0.04-23.5,0.19-30.81c11.12,6.2,16.84,17.08,16.84,25.98
				c0,14.28-14.39,21.87-16.95,23.13C64.38,410.05,64.35,402.45,64.35,399.18z M71.6,433.13c-2.09,0-4.5-0.22-7.03-0.7
				c-0.04-3.38-0.07-7.24-0.1-11.14c1.22-0.17,2.38-0.25,3.62-0.25c7.03,0,13.4,2.75,13.4,7.03
				C81.49,431.59,76.1,433.13,71.6,433.13z"/>
			<path d="M190.9,413.13c-0.44,0-0.77,0.22-0.88,0.55c-1.43,7.47-4.84,17.36-6.7,17.36c-1.43,0-3.19-5.82-3.19-14.72
				c0-4.34,0.06-12.2,0.15-16.39c3-0.69,5.06-0.93,6.22-1.08c0.66-0.11,0.88-0.66,0.88-1.32c0-1.98-1.87-5.27-3.3-5.27
				c-0.6,0-1.68,0.03-3.59,0.37c-0.07-7.31,0.05-15.72,0.29-16.19c0.22-0.33,0.33-0.99,0.33-1.32c0-2.31-3.74-5.49-5.71-5.49
				c-0.77,0-1.54,0.99-1.54,1.98c0,0.67,0.32,2.56,0.3,4.33c-0.06,5.47,0,11.4-0.2,18.1c-0.53,0.17-3.24,1.02-3.95,1.31
				c-0.65,0.27-1.1,0.55-1.1,1.1c0,1.87,2.38,4.44,4.74,4.7c-0.33,4.19-1.43,10.35-2.21,14.42c-0.07,0.29-0.11,0.55-0.11,0.88
				c0,0.2,0.02,0.38,0.05,0.57c-2.68,9.98-7.52,15.14-9.9,15.1c-2.32,0.04-3.31-4.79-3.73-8.1c7.45-0.32,10.19-14.06,10.19-21.86
				c0-5.38-1.32-10.88-6.28-11.09c-0.45-0.02-0.76-0.13-1.11-0.42c-0.83-0.65-1.88-1.13-2.82-1.13c-4.32,0-6.6,13.98-6.6,25.43
				c0,2.08,0.08,4.1,0.25,6c-2.48,8.1-5.77,12.95-7.05,12.93c-1.44,0.03-3.2-6.23-3.89-11.67c5.64-8.62,9.26-31.36,9.26-46.53
				c0-5.93-0.88-11.98-4.3-13.51c-1.2-0.54-2.07-2.09-3.61-2.09c-6.1,0-8.48,23.45-8.48,43.57c0,4.45,0.08,9.62,0.52,14.56
				c-2.51,9.75-6.41,15.7-7.82,15.67c-1.44,0.03-3.2-6.23-3.89-11.67c5.64-8.62,9.26-31.36,9.26-46.53c0-5.93-0.88-11.98-4.3-13.51
				c-1.2-0.54-2.07-2.09-3.61-2.09c-6.1,0-8.48,23.45-8.48,43.57c0,3.56,0.05,7.6,0.3,11.6c-1.38,6.36-4.09,13.75-5.09,13.75
				c-0.59,0-0.81-3.14-0.81-8.54c0-8.1,0.44-22.93,1.01-25.78c0.02-0.1,0.02-0.21,0.02-0.31c0-1.97-2.64-4.09-4.53-4.09
				c-0.81,0-2.6,0.74-2.6,1.77c0,0.62,0.17,1.89,0.17,3.93c0,16.04-3.61,34.27-5.89,34.29c-1.03,0.01-1.44-6.3-1.44-13.7
				c0-8.52,0.32-21.11,1.09-24.52c0.11-0.2,0.16-0.4,0.16-0.6c-0.01-1.63-2.4-4.12-4.55-4.12c-0.87,0-2.97,1.12-2.97,2.07
				c0,0.66,0.19,2.07,0.19,3.53c0,6.03-0.3,19.45-0.3,28.24c0,6.31,1.74,8.55,2.88,10.81c1.4,2.8,2.89,4.55,4.88,4.55
				c2.92,0,4.81-5.56,5.87-11.5c0.03-0.16,0.1-0.25,0.17-0.25c0.06,0,0.12,0.08,0.15,0.26c0.36,2.5,1.13,4.21,1.99,5.79
				c2.11,3.85,3.79,4.24,4.54,4.24c2.57,0,4.88-4.01,6.55-8.55c1.18,5.13,3.14,9.1,6.38,10.26c0.85,0.31,2.75,1.32,3.96,1.32
				c3.59,0,6.43-4.51,8.45-9.75c1.21,4.23,3.07,7.41,5.91,8.43c0.85,0.31,2.75,1.32,3.96,1.32c3.26,0,5.9-3.72,7.87-8.32
				c0.71,1.74,1.78,3.71,4.01,5.01c2.12,1.23,3.17,2.21,5.37,2.21c5.18,0,9.03-6.66,11.3-13.13c0.3,1.97,0.85,3.67,1.41,5.01
				c0.98,2.33,2.15,3.62,3.86,4.83c1.65,1.16,2.97,2.97,4.83,2.97c5.6,0,9.78-18.35,9.78-21.1
				C193.86,414.34,192.33,413.13,190.9,413.13z M121.41,407.53c0-17.36,2.09-41.64,4.28-41.64c0.44,0,0.99,0.88,0.99,9.45
				c0,14.17-2.86,34.5-5,41.71C121.52,414.23,121.41,410.93,121.41,407.53z M139.72,407.53c0-17.36,2.09-41.64,4.28-41.64
				c0.44,0,0.99,0.88,0.99,9.45c0,14.17-2.86,34.5-5,41.71C139.83,414.23,139.72,410.93,139.72,407.53z M161.16,394.61
				c0.75-0.06,1.19,4.23,1.15,7.39c0.04,7.39-1.83,15.41-4.79,19.35C157.6,408.12,159.73,394.61,161.16,394.61z"/>
			<path d="M331.45,391.7L331.45,391.7c-0.87-0.67-2.2-0.99-3.19-1.32c-0.99-0.33-1.98-1.21-3.08-1.21c-2.59,0-4.42,9.42-5.87,20.11
				c-0.06,0.34-0.15,0.48-0.24,0.48c-0.08,0-0.16-0.08-0.15-0.41c0.32-10.21,0.89-21.29,1.21-23.25c0.03-0.17,0.05-0.34,0.05-0.51
				c-0.03-2.68-3.15-4.98-4.77-4.98c-1.43,0-2.53,0.88-2.53,1.54c0,0.99,0.22,2.09,0.22,5.05c0,6.07-0.17,17.41-0.3,28.19
				c-1.39,6.32-4.06,13.59-5.06,13.59c-0.59,0-0.81-3.14-0.81-8.54c0-8.1,0.44-22.93,1.01-25.78c0.02-0.1,0.02-0.21,0.02-0.31
				c0-1.97-2.64-4.09-4.53-4.09c-0.81,0-2.6,0.74-2.6,1.77c0,0.62,0.17,1.89,0.17,3.93c0,16.04-3.61,34.27-5.89,34.29
				c-1.03,0.01-1.44-6.3-1.44-13.7c0-8.52,0.32-21.11,1.09-24.52c0.11-0.2,0.16-0.4,0.16-0.6c-0.01-1.63-2.4-4.12-4.55-4.12
				c-0.87,0-2.97,1.12-2.97,2.07c0,0.66,0.19,2.07,0.19,3.53c0,3.84-0.12,10.67-0.21,17.39c-1.21,1.1-2.74,2.16-4.47,3.12
				c0.04-1.01,0.05-2.01,0.05-3.01c0-7.08-0.9-13.65-2.68-16.73c-1.17-2.02-2.8-3.08-4.79-3.52c-0.99-0.22-2.11-1.32-3.76-1.32
				c-5.15,0-9.08,10.29-9.08,20.8c0,2.24,0.33,4.13,0.92,5.74c-1.52,7.39-5.55,16.29-7.19,16.29c-0.83,0-1.05-1.74-1.05-4.82
				c0-8.13,1.52-20.33,4.07-28.13c0.06-0.2,0.1-0.44,0.1-0.7c0-1.07-0.31-2.04-1.74-3.14c-1.99-1.52-2.09-4.07-5.05-4.07
				c-1.37,0-4.89,1.19-5.44,1.37c-0.09-2.02-0.18-4.95-0.49-6.2c-0.5-1.99-2.75-3.52-4.4-3.52c-1.49,0-2.63,4.06-2.63,5.76
				c0,4.23,1.66,7.39,2.88,9.5c-0.09,9.14-1.92,20.7-4.02,26.34c-0.82-0.92-2.03-1.49-3.81-1.49c-1.65,0-2.53,0.44-2.55,1.54
				c0,0.2,0.04,0.42,0.14,0.66c0.1,0.89,0.32,5.63,0.33,7.58c-2.97,0.66-6.15,1.1-8.68,1.1c-8.02,0-11.54-4.4-11.54-17.58
				c0-23.51,11.1-51.75,17.58-51.75c0.3,0,0.61,0.05,0.88,0.19c-0.02,4.68-0.11,10.87-0.11,18.81c0,2.31-0.33,19.23-0.33,22.2
				c0,1.43,1.54,4.07,3.52,4.07c1.32,0,3.19-0.75,3.19-1.87c0-0.48-0.11-0.99-0.16-1.4c-0.14-1.83-0.22-4.94-0.22-8.71
				c0-7.91,1.81-18.46,1.81-23.4c0-2.22-0.65-4.71-1.72-7.04c0.08-4.85,0.24-10.01,0.29-11.64c0.01-0.4,0.4-0.89,0.4-1.28
				c0.01-1.94-2.76-4.21-4.69-4.21c-0.66,0-2.2,0.66-2.2,1.43c0,1.22,0.11,6.15,0.17,8.28c-1.16-0.72-2.37-1.14-3.58-1.14
				c-12.09,0-21.87,30.55-21.87,54.06c0,7.47,0.99,14.61,5.09,19.12c5.18,5.7,8.74,8.79,13.48,8.79c2.75,0,5.6-0.77,8.68-2.72
				c0,1.24,0.11,2.36,0.11,4.48c0,8.9-0.99,12.42-3.96,12.42c-3.41,0-10.99-4.4-14.83-9.67c-0.33-0.66-0.66-0.77-0.99-0.77
				c-1.65,0-2.97,3.19-2.97,4.94c0,1.54,0.64,3.76,2.09,5.27c1.88,1.96,7.58,5.27,13.51,5.27c4.72,0,6.59-2.09,9.12-3.52
				c3.96-2.2,4.39-6.7,4.5-11.98v-10.44c0.22-0.71,0.41-1.48,0.55-2.27c0.85-0.12,1.72-0.51,2.12-1.15
				c3.08-4.88,4.83-23.02,5.12-32.23c1.41-0.25,3.02-0.45,5.04-0.49c-1.53,6.48-3.28,16.62-3.28,24.43c0,4.9,0.69,9.02,2.54,11.03
				c3.03,3.28,4.38,4.3,6.14,4.3c2.52,0,5.04-4.2,6.94-9.02c0.26,0.82,0.57,1.6,0.95,2.32c1.78,3.31,3.37,4.07,5.8,4.83
				c1.43,0.45,2.32,0.99,3.53,0.99c4.11,0,6.65-7.64,7.68-16.6c1.76-0.73,3.45-1.61,4.87-2.55c-0.01,1.36-0.02,2.66-0.02,3.87
				c0,6.31,1.74,8.55,2.88,10.81c1.4,2.8,2.89,4.55,4.88,4.55c2.92,0,4.81-5.56,5.87-11.5c0.03-0.16,0.1-0.25,0.17-0.25
				c0.06,0,0.12,0.08,0.15,0.26c0.36,2.5,1.13,4.21,1.99,5.79c2.11,3.85,3.79,4.24,4.54,4.24c1.81,0,3.49-2,4.91-4.76
				c0,0.88,0,1.72,0,2.52c0,5.87,0,19.46-0.24,24.8c-0.02,0.47-0.21,1.99-0.21,2.89c0,1.54,2.64,3.84,4.62,3.84
				c2.03,0,2.98-1.34,2.97-2.15c0-0.14-0.04-0.31-0.11-0.49c-0.22-0.58-0.31-4.7-0.33-9.87c-0.03-4.99,0-10.95,0-15.6
				c1.06,0.73,2.31,1.19,3.74,1.19c7.47,0,12.09-14.39,12.09-31.43C335.19,397.2,333.98,393.68,331.45,391.7z M271.72,432.25
				L271.72,432.25c-0.97,0-2.03-6.75-2.08-11.07c1.36,0.43,2.91,0.63,4.62,0.63c0.41,0,0.84-0.02,1.3-0.07
				C274.51,428.77,272.63,432.25,271.72,432.25z M276.14,416.29c-2.2,0.67-4.39,1.08-6.33,1.12l-0.05-0.08
				c0.26-3.74,0.93-6.25,1.57-6.73c0.33-0.22,0.43-0.55,0.43-0.77c-0.02-1.25-1.49-2.84-3.03-3.22c1.06-6.6,3.76-13.27,5.07-13.27
				c1.54,0,2.53,8.79,2.53,17.25C276.32,412.64,276.26,414.54,276.14,416.29z M319.37,433.81v-3.09
				c1.39-13.78,5.72-36.93,7.91-36.93c1.1,0,1.32,5.49,1.32,7.91C328.6,409.76,326.14,432.22,319.37,433.81z"/>
			<polygon points="402.76,433.46 402.76,433.46 402.76,433.46 			"/>
			<path d="M431.13,409.39c-0.66,0-1.17,0.21-1.32,1.21c-2.31,15.82-9.45,22.63-12.77,22.59c-2.67-0.03-3.81-6.93-3.81-15.02
				c0-10.09,1.54-22.6,4.71-25.37c-0.06,2.72-0.36,9.49-0.46,12.16c-0.1,2.65-0.31,4.99-0.31,6.18c0,2.04,3.08,4.18,3.96,4.18
				c1.43,0,2.31-0.88,2.31-1.65c0-1.56-0.11-2.53-0.11-5.71c0-7.25,0.33-18.02,0.66-19.34c0.11-0.33,0.22-0.88,0.22-1.1
				c0-1.98-2.75-3.96-4.29-3.96c-0.66,0-2.42,0.77-2.42,1.87c0,0.44,0.44,3.3,0.44,4.94c-0.99-0.99-2.64-1.98-3.96-1.98
				c-4.75,0-7.53,15.33-7.53,27.64c0,1.07,0.02,2.13,0.06,3.17c-1.43,4.86-3.35,9.39-4.4,9.38c-0.78,0.02-1.22-2.62-1.22-8.44
				c0-4.65,0.48-14.28,1.46-20.76c0.1-0.47,0.54-1.12,0.54-1.51c0-2-3.54-5.52-5.84-5.52c-1.32,0-2.67,0.88-2.75,1.98
				c-0.32,4.33-3.21,20.29-5.7,29.54c-0.07,0.28-0.16,0.38-0.23,0.38c-0.06,0-0.11-0.09-0.11-0.21c0.02-5.91,0.22-18.37,0.27-22.88
				c0.05-5.54,0.16-9.31,0.39-10.24c0.04-0.11,0.05-0.23,0.05-0.35c0-1.33-2.32-3.28-4.34-3.28c-1.1,0-2.97,0.33-2.97,1.43
				c0,0.66,0.33,2.75,0.33,5.38c0,6.26-0.11,20.99-0.11,29.01c0,2.27,0.02,4.36,0.04,6.1c-0.91-0.8-1.95-1.38-2.9-1.38l0,0
				c-1.29,0-4.34,0.12-6.64,0.32c-0.1-21.72-0.17-35.04-0.17-39.99c0-7.41,0.03-16.51,0.17-23.65c1.51-0.05,4.04-0.08,5.33-0.08
				c2.31,0,4.17,0.11,5.38,0.22c0.88,0.08,1.21-0.44,1.21-1.21c0-2.2-2.75-6.48-6.26-6.48c-1.36,0-3.92,0.05-5.44,0.14
				c-0.01-1.54,0.12-2.75,0.27-3.33c0.14-0.23,0.21-0.47,0.21-0.72c0.05-2.11-3.64-5.43-5.27-5.43c-1.1,0-2.31,0.99-2.31,1.65
				c0,0.77,0.22,2.64,0.22,4.94c0,1.25-0.01,1.68-0.03,3.22c-5.22,0.45-10.95,1.58-14.58,2.71c-1.76,0.55-4.94,1.65-5.82,4.72
				c-0.58,2.04-1.98,6.04-1.98,7.91c0,1.21,0.33,2.42,1.21,3.63c5.91,8.13,19.47,25.19,20.77,42.15c0,3.59,0.12,7.6,0.12,10.35
				c-5.96,0.74-11.63,1.72-14.52,2.32c-0.12-0.03-0.23-0.05-0.34-0.05c-0.59,0.01-0.98,0.56-0.98,1.58c0,1.98,2.42,4.72,4.2,4.69
				c0.5-0.01,1.45-0.5,1.74-0.62c2.47-0.32,5.37-0.78,9.76-1.24c-0.03,2.12-0.11,2.86-0.31,3.88c-0.09,0.27-0.13,0.52-0.13,0.76
				c0.02,2.4,4.2,3.85,6.4,3.85c0.88,0,1.43-0.22,1.43-0.66c0-0.7-0.13-3.77-0.19-8.51c2.9-0.23,7.02-0.44,10.4-0.59
				c1.12,1.28,3.08,2.18,4.29,2.18c0.77,0,1.21-0.33,1.32-1.32c1.92-6.43,3.69-15.05,5.56-22.66c0.09-0.38,0.24-0.57,0.36-0.58
				c0.1,0,0.18,0.13,0.18,0.4c0,0.06,0,0.12-0.01,0.18c-0.18,1.82-0.3,3.79-0.3,5.74c0,4.78,0.74,9.48,3.26,11.7
				c1.89,1.66,3.11,3.46,5.23,3.46c1.99,0,3.76-2.06,5.21-4.86c1.05,3.08,2.77,5.56,5.58,7.06c1.66,0.88,3.3,2.2,5.6,2.2
				c8.68,0,14.28-18.79,14.28-24.72C433.44,411.59,432.34,409.39,431.13,409.39z M365.29,388.95v14.26
				c-4.74-13.95-16.89-31.51-16.89-34.15c0-1.97,7.12-3.55,17.19-4.17C365.47,372.35,365.29,381.15,365.29,388.95z"/>
			<path d="M438.54,427.52c-0.33-0.11-0.66-0.22-0.99-0.22c-2.2,0-3.85,2.86-3.85,5.6c0,2.2,1.1,4.18,3.85,4.18
				c3.41,0,4.94-2.53,4.94-4.94C442.5,429.61,441.07,427.3,438.54,427.52z"/>
		</g>
		<g>
			<g>
				<polygon points="334.16,128.6 334.4,127.1 329.48,127.79 				"/>
				<polygon points="218.09,270.46 217.44,270.94 217.44,274.24 218.09,274.87 219.52,275.06 220.16,274.59 220.16,271.3 
					219.52,270.66 				"/>
				<polygon points="202.45,258.12 202.45,257.61 201.95,256.94 200.18,256.53 200.18,258.24 201.95,258.65 				"/>
				<path d="M182.37,107.39v7.94l6.88-2.66c2.06-0.79,3.97-1.89,5.75-3.32c1.76-1.41,3.16-3.4,4.18-5.97
					c0.19-0.46,0.3-0.89,0.34-1.3c0.06-0.41,0.17-0.83,0.35-1.29c0-0.23,0.06-0.44,0.15-0.64c0.18-0.92,0.32-1.87,0.42-2.83
					c0.06-0.64,0.1-1.35,0.12-2.08l0.19-0.01l0.99-0.41l-1.12-0.5h-0.04c0-0.07,0.01-0.14,0.01-0.2V80.97
					c0-2.02-0.41-3.55-1.19-4.61c-0.79-1.06-1.69-1.78-2.71-2.18c-0.93-0.19-1.96-0.19-3.07-0.02c-1.12,0.19-2.33,0.44-3.64,0.78
					l-7.59,2.84v28.67l-0.15-0.01l-1.03,0.3l1.06,0.62L182.37,107.39z"/>
				<polygon points="202.4,255.48 202.4,255 201.86,254.22 200.18,253.83 200.18,255.6 201.86,255.99 				"/>
				<polygon points="225.98,271.93 225.44,271.24 223.76,271.08 223.76,272.86 225.44,273.02 225.98,272.41 				"/>
				<polygon points="208.22,259.43 208.22,258.9 207.72,258.26 205.96,257.9 205.96,259.61 207.72,259.97 				"/>
				<path d="M215.99,207.15c0.37-0.82,0.56-1.82,0.56-3v-10.42c0-1.14-0.19-2.14-0.56-2.99c-0.37-0.85-0.8-1.54-1.3-2.1
					c-0.49-0.55-1-0.97-1.54-1.24c-0.53-0.28-0.98-0.42-1.36-0.42l-3.36-0.02v23.05l3.36,0.32c0.38,0.04,0.83-0.04,1.36-0.25
					c0.53-0.2,1.05-0.54,1.54-1.01C215.19,208.6,215.62,207.96,215.99,207.15z"/>
				<path d="M197.53,115.13c-0.11-0.03-3.21,0-3.21,0c-1.87-0.37-3.1-0.29-5.07,0.47l-6.88,2.67v12.7
					c-0.05,0.11-0.09,0.25-0.09,0.39c0,0.14,0.04,0.27,0.09,0.39v23.96l5.9-2.36c1.32-0.53,2.61-1.22,3.87-2.06l7.35-3.01
					l-4.14,0.44c0.04-0.04,0.09-0.08,0.13-0.12c2.29-2.14,3.78-4.84,4.53-8.09c0.18-0.77,0.32-1.54,0.42-2.31
					c0.09-0.78,0.15-1.59,0.15-2.45v-10.46l1.78-6.69c-0.04-0.15-2.82,0.61-2.76,0.48c0.4-0.86,3.49-1.3,3.11-2.17
					c-0.3-0.68-2.83,1.09-3.4,0.45c-0.45-0.5,1.03-2.14,0.52-2.65c-0.81-0.81-4.6,0-4.6,0L197.53,115.13z"/>
				<polygon points="222.57,245.59 221.92,246.09 221.92,249.39 222.57,250 224,250.13 224.65,249.64 224.65,246.34 224,245.72 				
					"/>
				<polygon points="190.11,251.49 189.58,250.69 187.95,250.17 187.95,251.94 189.58,252.46 190.11,251.97 				"/>
				<polygon points="177.54,117.96 176.51,118.27 177.58,118.88 178.43,119.03 178.27,118 				"/>
				<polygon points="206.44,268.43 205.79,268.87 205.79,272.16 206.44,272.84 207.87,273.12 208.52,272.69 208.52,269.4 
					207.87,268.71 				"/>
				<polygon points="218.37,245.65 217.72,244.98 216.28,244.76 215.63,245.22 215.63,248.52 216.28,249.17 217.72,249.39 
					218.37,248.94 				"/>
				<polygon points="252.83,272.54 252.83,272.06 252.29,271.45 250.62,271.58 250.62,273.35 252.29,273.22 				"/>
				<polygon points="249.04,246.25 249.04,248.02 250.71,247.91 251.25,247.22 251.25,246.74 250.71,246.13 				"/>
				<polygon points="255.3,245.75 254.66,246.36 254.66,249.65 255.3,250.16 256.74,250.04 257.39,249.44 257.39,246.14 
					256.74,245.64 				"/>
				<polygon points="247.54,199.61 248.13,200.57 249.45,200.37 250.35,199.69 248.57,199.3 				"/>
				<polygon points="254.96,66.21 254.8,65.18 254.07,65.14 253.04,65.45 254.1,66.06 				"/>
				<polygon points="250.62,274.27 250.62,275.99 252.39,275.86 252.89,275.17 252.89,274.65 252.39,274.14 				"/>
				<polygon points="265.58,257.81 265.58,257.34 265.05,256.77 263.4,257.01 263.4,258.77 265.05,258.53 				"/>
				<polygon points="253.4,99.76 252.62,101.11 254.99,100.9 255.34,100.45 254.13,99.8 				"/>
				<polygon points="208.16,256.78 208.16,256.31 207.62,255.55 205.96,255.21 205.96,256.97 207.62,257.31 				"/>
				<polygon points="233.17,259.7 233.17,259.22 232.64,258.56 230.97,258.48 230.97,260.25 232.64,260.33 				"/>
				<path d="M322.48,129.58c-0.74-0.14-2.22-0.24-2.97-0.13c-4.12,0.6-29.82,0.49-29.82,0.49s20.13-0.77,22.49-0.64
					c0.64,0.03,1.9-0.61,2.55-0.67c0.66-0.06,1.66,0.35,2.3,0.15c4.17-1.41,17.32-3.14,17.32-3.14c0.14-9.51,0.02-17.74-0.25-24.86
					c-0.01-0.01-0.01-0.01-0.01-0.03c-0.68-1.93-3.19,1.29-3.19-0.78c0-2.06,1.93-2.61,2.95-4.85c-0.38-7.03-0.88-12.83-1.38-17.57
					c-0.13-1.21-0.34-2.38-0.61-3.53l-0.54,0.25c0,0-1.09-0.42-1.47-0.49c-0.62-0.1-2.35,0.62-2.49,0.02
					c-0.11-0.49,1.32-0.8,1.82-0.84c0.67-0.06,2.59,0.69,2.59,0.69c-2.06-8.18-7.45-14.64-11.7-17.15
					c-21.76-12.86-53.49-18.42-77.83-18.76l-9.4,1.19l-21.81,1.03c-18.08,2.72-36.8,8.04-51.19,16.53c-0.4,0.24-0.82,0.53-1.24,0.83
					c-1.39,0.87-2.9,4.21-2.11,5.44c0.79,1.23,5.72-1.46,5.83,0c0.15,1.83-6.84,1.09-6.73,2.92c0.05,0.87,3.51,0.13,3.36,1
					c-0.07,0.4-6.63,0.48-8.31,1.78c-0.53,0.42-1.28,1.37-1.52,2.02c0,0,3.17-0.68,3.57,0.11c0.07,0.13-0.21,0.4-0.34,0.48
					c-0.79,0.52-2.96,0.19-3.7,0.78c-0.23,0.19-0.45,0.63-0.26,0.88c1.11,1.41,7.2-0.27,7.21,0c0.02,0.59-7.51,1.18-7.51,1.18v-0.08
					c-0.14,0.55-0.25,1.11-0.35,1.66c1.06,1.15,3.23,4.08,2.37,3.68c-1.56-0.7-1.96,1.12-2.93,0.9c-0.04,0.44-0.08,0.87-0.13,1.34
					c0.54-0.02,0.98,0.09,1.11,1c0.15,1.04-0.53,1.21-1.31,1.43c-0.97,12.11-1.68,30.54-1.11,51.83c4.34,0.73,14.44,0.1,14.44,0.1
					c-4.97,1.29-11.13,1.58-14.37,2.57c0.19,6.08,0.5,12.39,0.92,18.84c1.07,1.16,3.2,4.05,2.35,3.67
					c-1.02-0.46-1.54,0.16-2.06,0.58c0.68,9.02,1.61,18.27,2.87,27.56l3.24,0.67l7.26-0.02l-6.8,1.29l-3.17-0.1
					c0.14,1,0.29,1.99,0.44,3c0.73,1.48,1.93,4.62,1.23,4.04c-0.23-0.2-0.45-0.3-0.66-0.34c0.15,0.97,0.3,1.94,0.46,2.91
					c0.39,0.05,0.69,0.26,0.79,0.99c0.09,0.61-0.11,0.92-0.45,1.12c4.23,25.67,10.61,51.93,21.63,68.95c0.85,0.07,1.73-0.36,1.93,1
					c0.09,0.63-0.13,0.94-0.49,1.13c0.41,0.57,0.81,1.14,1.23,1.69l-0.46-3.65l0.83,1.78l-0.17,2.13c0.62,0.81,1.25,1.6,1.9,2.36
					l1.65,0.37l3.9-0.25l-3.01,1.54l0.27,1.66l1.09-0.29l1.57-0.39l9.15,4.37l-6.8-1.37l-3.95,0.01l1.3,0.3l7.69,2.02
					c0,0-7.04-0.14-7.19,1.06c0,0,15.68,0.9,14.65,1.02c-2.83,0.35-4.25,0.26-11.02,0.47c3.46,0.85,10.83,0.3,16.9,1.82
					c0,0-13.93,0.16-16.76,0.16c0,0,1.45,2.55,3.43,5.32c0.5,0.7,1.14,1.2,1.17,1.23l0.24-0.78l1.66,1.18l-0.99,0.46
					c1.63,1.51,3.32,2.94,5.07,4.28l10.88,1.37h-9.05c0.28,0.2,0.55,0.4,0.83,0.59c2.43-0.32,6.07-0.11,6.27,3.89
					c9.37,5.12,20.09,7.99,32.38,7.99c27.89,0,47.79-14.8,61.89-37.15c0,0,3.06-4.4,3.66-6.07c1.37-3.78,2.45-15.91,2.45-15.91
					l0.43,7.64l1.16,0.24c0.05-0.09,0.09-0.19,0.13-0.28l0.49-5.81l0.83-4.17l0.3,2.68l-1.13,1.49l0.68,3.27
					c0.08-0.18,0.16-0.35,0.24-0.54l0.66-3.57l0.01,2.05c1.95-4.48,3.72-9.11,5.35-13.84c-0.52,0.24-0.98,0.37-1.48-0.46
					c-1.06-1.78,2.14-1.66,1.85-4.13c-0.06-0.53,0.33,0.17,0.79,1.18c5.07-15.5,8.62-32.15,11.09-49.16c0,0-6.48-0.22-6.4-0.87
					c0.03-0.24,6.59-0.46,6.59-0.46c0.11-0.74,0.21-1.49,0.32-2.24c0,0-5.47,0.52-5.21-0.13c0.14-0.34,5.31-0.61,5.31-0.61
					c0.52-3.83,0.98-7.62,1.4-11.38c-0.47-0.08-0.83-0.28-0.83-1.13c0-0.87,0.47-1.06,1.09-1.17c0.46-4.34,0.87-8.62,1.22-12.85
					c-1.55,0.05-3.13,0.89-1.94-0.03c0.61-0.46,1.01-2.7,0.38-3.91c-0.31-0.6,0.72,0.68,1.72,2.03c0.62-7.97,1.04-15.74,1.27-23.26
					c-0.06,0.05-0.11,0.04-0.16-0.1c-0.68-1.93-2.94-2.07-2.82-2.23c1.17-1.64,2.2-0.86,3.08-1.66c0.02-0.9,0.05-1.82,0.06-2.7
					c0,0-6.46-0.75-8.55-1.14C324.98,129.48,324.17,129.88,322.48,129.58z M329.19,76.01c0.11-0.34,0.7-1.09,1.05-0.98
					c0.19,0.06,0.15,0.57,0.18,0.77c0.06,0.33,0.4,1.03,0.24,1.33c-0.16,0.29-0.93,0.69-1.22,0.53
					C329.07,77.46,329.05,76.4,329.19,76.01z M325.79,75.68c0.27,0.08,0.19,0.82,0.24,1.1c0.09,0.47,0.73,1.68,0.3,1.89
					c-0.32,0.16-0.71-0.79-0.99-1.01c-0.24-0.19-0.99-0.32-1.06-0.62C324.15,76.54,325.31,75.52,325.79,75.68z M323.73,72.12
					c0.49,0.15,1.71,0.67,1.66,1.18c-0.03,0.28-0.74,0.47-1.02,0.47c-0.43,0.01-1.16-0.67-1.59-0.69c-0.9-0.04-3.43,1.1-3.57,0.22
					C319.02,72.16,322.61,71.77,323.73,72.12z M154.52,71.07l-0.03-0.37l4.38,0.17L154.52,71.07z M160.14,192.83l-0.76,0.41
					l-0.27-1.41l0.75,0.26l1.25,0.52L160.14,192.83z M197.35,298.81l-1.07-0.34l-0.4-1.06l1.06,0.35l1.78,0.71L197.35,298.81z
					 M307.62,115.07l-1.16,0.42l1.16-0.51V115.07z M299.83,73.6l10.63,3.94v5.42l-0.73-0.19c-0.02-0.83-0.08-1.58-0.18-2.23
					c-0.09-0.55-0.26-1.1-0.49-1.64c-0.22-0.55-0.54-0.9-0.94-1.04l-1.29-0.44v34.99c0,0.51,0.05,0.88,0.14,1.08l-1.09-0.01
					l-1.63,2.82l-0.7,0.25v-1.51c0.2,0.05,0.35,0.01,0.47-0.16c0.13-0.08,0.24-0.26,0.33-0.54c0.11-0.29,0.16-0.69,0.16-1.23V76.6
					l-1.52-0.53c-0.51-0.17-0.92-0.06-1.19,0.39c-0.29,0.45-0.48,0.96-0.58,1.52c-0.16,0.69-0.26,1.51-0.29,2.47l-1.09-0.28V73.6z
					 M286.28,120.61c0.27,0.06,0.47-0.02,0.6-0.21c0.17-0.11,0.32-0.35,0.46-0.72c0.15-0.37,0.22-0.89,0.22-1.58V98.52l2.41-0.43
					l-2.41-0.54v-24c0-0.73-0.07-1.28-0.22-1.65c-0.15-0.37-0.3-0.63-0.46-0.78c-0.13-0.14-0.33-0.21-0.6-0.2v-1.79l11.8,4.19v6.56
					l-0.94-0.23c-0.02-0.98-0.08-1.87-0.21-2.67c-0.12-0.68-0.32-1.35-0.61-2.01c-0.29-0.67-0.69-1.1-1.21-1.26l-4.32-1.43v22.7
					l2.97-0.01c0.35-0.01,0.62-0.16,0.81-0.47c0.18-0.3,0.31-0.66,0.39-1.05c0.1-0.48,0.15-1.02,0.15-1.63l0.88,0.04v7.96
					l-0.88,0.07c0-0.61-0.05-1.14-0.15-1.57c-0.08-0.43-0.21-0.81-0.39-1.13c-0.19-0.32-0.45-0.48-0.81-0.47l-2.97,0.09v22.35
					l4.32-1.55c0.52-0.18,0.91-0.58,1.21-1.2c0.29-0.61,0.49-1.27,0.61-1.99c0.13-0.8,0.2-1.7,0.21-2.68l0.94-0.26v6.57l-11.8,4.51
					V120.61z M270.01,65.67l6.91,1.5v1.97c-0.29-0.17-0.54-0.21-0.76-0.15c-0.14,0.09-0.28,0.3-0.43,0.63
					c-0.15,0.33-0.22,0.91-0.22,1.75l-0.01,25.18l-0.64,0.19l0.64,0.37v0.58c0,0-0.44,0.04-0.57,0.11c-0.67,0.4-1.61,1.94-1.54,2.72
					c0.04,0.42,1.09,1.31,1.09,1.31l1.03,0.1v2.17l-1.44,0.42l1.44,0.83v0.44c0,0-2.25-0.57-2.38,0.02
					c-0.11,0.47,1.74,0.86,1.74,0.86l0.22,1.1l0.42-0.37l-0.01,16.84l4.92-1.58c0.69-0.22,1.22-0.69,1.57-1.4
					c0.34-0.68,0.58-1.44,0.74-2.28l1.4,0.14l0.13-2.12l-0.01,6.41l-14.23,4.85V126c0.32,0.07,0.56-0.01,0.72-0.23
					c0.2-0.13,0.4-0.4,0.59-0.83c0.2-0.44,0.3-1.06,0.3-1.86V70.69c0.01-0.86-0.1-1.5-0.29-1.92c-0.2-0.41-0.4-0.69-0.6-0.86
					c-0.15-0.15-0.39-0.2-0.73-0.14L270.01,65.67L270.01,65.67z M249.15,132.99c0.41,0.06,0.71-0.04,0.92-0.31
					c0.26-0.15,0.51-0.49,0.77-1.01c0.25-0.52,0.38-1.24,0.38-2.17v-23.54l0.97-0.48l-0.97-0.87v-3.27c0,0,0.5,0.02,0.62-0.08
					c0.52-0.41,1.37-1.94,0.95-2.45c-0.25-0.31-1.58-0.02-1.58-0.02V68.4c0-1-0.13-1.73-0.38-2.19c-0.26-0.45-0.51-0.77-0.77-0.93
					c-0.2-0.16-0.51-0.19-0.92-0.09v-2.43l8.86,0.69v2.28c-0.38-0.17-0.69-0.2-0.98-0.1c-0.19,0.11-0.38,0.36-0.56,0.75
					c-0.18,0.41-0.29,1.09-0.29,2.05v28.9c0,0-2.19-0.85-2.76-0.44c-0.2,0.15-0.13,0.79,0,1.01c0.28,0.49,1.96,1.13,1.96,1.13
					l0.8,0.14v31.45l6.35-2.14c0.9-0.3,1.57-0.88,2.04-1.73c0.45-0.85,0.78-1.78,1-2.81c0.2-1.09,0.33-2.32,0.37-3.71l1.58-0.45v8.9
					l-0.39-0.02l-1.03,0.3l0.69,0.4l-17.65,6.27L249.15,132.99L249.15,132.99z M244.01,38.98l3.16,0.84l-1.02,0.47l-1.47-0.49
					l-2.49,0.02L244.01,38.98z M240.98,40.99l0.18,0.77l0.23,1.33l-0.71-0.7l-0.76-0.42L240.98,40.99z M226.62,65.05v2.64
					c-0.45-0.07-0.84-0.01-1.16,0.19c-0.33,0.2-0.62,0.56-0.88,1.09c-0.27,0.53-0.4,1.34-0.4,2.45c0,0.07,0,1.4,0,3.99
					c0.01,2.58,0.01,5.83,0.02,9.74s0.02,8.2,0.06,12.87c0.01,1.04,0.02,2.06,0.02,3.07l-1.13,0.33l1.13,0.65
					c0.01,0.45,0.01,0.89,0.01,1.33c0,0-1.89-0.42-2.28,0c-0.63,0.69,0.27,2.95,0.93,3.61c0.25,0.25,1.36,0.37,1.36,0.37
					c0.01,0.73,0.01,1.45,0.01,2.16l-1.59,0.47l1.6,0.92c0,0.09,0,0.18,0,0.27c0.01,4.12,0.01,7.67,0.01,10.64
					c0,2.97,0.01,4.8,0.01,5.46c0.01,5.65,0.55,9.44,1.62,11.35c1.08,1.9,2.63,2.42,4.66,1.59l0.09-0.04l0.1-0.04
					c1.87-0.77,3.33-2.51,4.41-5.21c1.06-2.68,1.59-6.73,1.59-12.14v-8.24c0-1.69,0-3.49,0-5.39l-0.02-39.93
					c0-1.06-0.11-1.8-0.32-2.23c-0.21-0.42-0.47-0.68-0.78-0.77c-0.37-0.08-0.76-0.02-1.19,0.19v-2.56l10.58-1.07v2.47
					c-0.21-0.05-0.43-0.03-0.64,0.03l0.03-0.47l-1.41,0.27l-1.54,2.72l1.08,1.31l0.42,0.04l0.01,54.18c0,0.36-0.03,0.7-0.05,1.05
					l-1.13,0.33l1.06,0.61c-0.15,1.49-0.47,2.95-0.98,4.37c-0.73,2.05-1.68,3.94-2.86,5.68c-1.19,1.74-2.51,3.24-3.98,4.49
					c-1.09,0.93-2.17,1.69-3.25,2.25h-10.42c-1.12-0.79-2.05-1.86-2.73-3.26c-0.8-1.57-1.18-3.55-1.19-5.95c0-0.3,0-1.37,0-3.21
					c-0.01-1.84-0.01-4.21-0.01-7.1c-0.01-2.89-0.01-6.11-0.02-9.65c-0.01-3.53-0.03-7.14-0.07-10.82
					c-0.04-3.68-0.06-7.3-0.07-10.84s-0.01-6.72-0.01-9.51c-0.01-0.86-0.01-1.66-0.01-2.42l5.63-1.82l-5.63,0.83
					c0-0.4,0-0.79,0-1.15l3.33-1.08l-3.33,0.49c0-0.54,0-1.04-0.01-1.49c0-1.62-0.01-2.47-0.01-2.55c0-1.13-0.16-1.92-0.47-2.36
					c-0.31-0.43-0.64-0.7-1-0.8c-0.27-0.11-0.7-0.04-1.26,0.21l-0.01-2.74L226.62,65.05z M231.21,142.41
					c-0.17,0.08-0.33,0.17-0.51,0.24c-1.52,0.64-3.06,0.96-4.61,0.95c-0.55-0.01-1.07-0.07-1.59-0.17L231.21,142.41z M246.44,149.62
					L246.44,149.62l7.07-0.8l-63.48,21.22l49.49-14.94h-0.01l0.53-0.16l26.11-7.88c-0.54,0.53-1.07,1.08-1.58,1.65l-21.75,6.41
					l-0.08-0.51l-1.34-0.06l-1.36,0.4l-0.52,0.16l1.13,0.66l-53.03,15.62l-3.07-0.14L246.44,149.62z M268.37,166.64
					c0.23,0.35,0.46,0.68,0.67,0.98l-58.83,6.36h-4.32l61.1-9.73c0.17,0.38,0.39,0.77,0.62,1.17l-52.23,7.44L268.37,166.64z
					 M249.85,205.73l1.92,0.51c0.02,1.62,0.02,3.38,0.02,5.29c0,3.14,0,5.87,0,8.19c0,1.73-0.04,3.3-0.1,4.69
					c-0.75,1.02-2.23,1.31-1.46,2.6c0.4,0.68,0.79,0.71,1.19,0.58c-0.12,0.94-0.27,1.79-0.47,2.53c-0.31,1.18-0.78,2.24-1.41,3.15
					c-0.97,1.45-2.2,2.55-3.69,3.3c-0.46,0.23-0.93,0.42-1.4,0.57c-0.42-0.33-1.03-0.79-1.63-1.21c1.12-0.26,2-0.84,2.64-1.76
					c0.89-1.27,1.34-3.44,1.34-6.49c0-2.03,0-4.47,0-7.32c0-2.85,0.02-5.8,0.07-8.84c-0.05-3-0.07-5.91-0.07-8.74
					c0-2.82,0-5.25,0-7.28c0-3.04-0.53-5.17-1.6-6.38c-1.06-1.21-2.37-1.81-3.91-1.81s-2.85,0.6-3.91,1.81
					c-1.06,1.21-1.59,3.33-1.59,6.38v16.01v16.16c0,3.04,0.47,5.21,1.41,6.49c0.71,0.98,1.69,1.58,2.93,1.81
					c-0.41,0.18-0.69,0.35-0.69,0.35l2.13,1.34c-0.09,0.01-0.18,0.02-0.28,0.02c-1.5,0-3.01-0.38-4.53-1.12
					c-0.03-0.02-0.05-0.03-0.07-0.04l1.11-0.2c0,0-1.22-1-2.35-1.76c-0.43-0.29-1-0.29-1.54-0.17c-0.32-0.35-0.62-0.73-0.89-1.13
					c-0.63-0.92-1.1-1.97-1.41-3.15c-0.31-1.18-0.53-2.63-0.65-4.35c-0.12-1.72-0.18-3.73-0.18-6.05c0-2.32,0-5.05,0-8.19
					c0-4.2,0.03-7.69,0.07-10.47c0.01-0.21,0.02-0.39,0.02-0.59c0,0,3.27-0.44,3.44-0.62c0.23-0.24-3.4-0.55-3.4-0.55
					c0.08-2.25,0.26-3.58,0.58-5.16c0.2-1.54,0.68-2.91,1.45-4.1c0.77-1.18,1.72-2.14,2.83-2.86c1.78-1.11,3.63-1.66,5.51-1.66
					c0.92,0,1.86,0.14,2.83,0.43c0.97,0.29,1.86,0.7,2.68,1.23c1.11,0.73,2.07,1.68,2.86,2.86c0.8,1.18,1.27,2.55,1.41,4.1
					c0.33,1.84,0.54,4.14,0.62,6.92c0.02,0.55,0.03,1.14,0.04,1.74l-4.02,1.51L249.85,205.73z M252.45,251.34l-0.99,0.06l-1.3-2.55
					l-1.12,0.07v2.64l-0.91,0.06v-2.63l-0.52-0.43l0.52-0.48v-2.69l3.02-0.19l1.02,1.11v1.25l-1.02,1.24L252.45,251.34z
					 M250.64,260.15v0.91l-2.19,0.14v1.72l2.84-0.17v0.91l-3.74,0.23v-2.64l-0.52-0.43l0.52-0.48v-2.68l3.74-0.23v0.91l-2.84,0.17
					v1.77L250.64,260.15z M239.96,274.13l0.52-0.46v-2.67h0.91v5.32h2.85v0.91h-3.76v-2.64L239.96,274.13z M233.44,274.13l0.52-0.46
					v-2.67h0.91v4.74l0.65,0.57h1.43l0.64-0.57v-4.74h0.91v2.67l0.52,0.46l-0.52,0.45v1.6l-1.16,1.04h-2.21l-1.16-1.04v-1.6
					L233.44,274.13z M229.54,260.63l0.52-0.42v-2.68l3.01,0.15l1.01,1.22v1.25l-1.01,1.13l1.3,2.69l-0.99-0.05l-1.3-2.69l-1.11-0.05
					v2.64l-0.91-0.05v-2.64L229.54,260.63z M236.9,264.04l-1.16-1.05v-1.59l-0.52-0.45l0.52-0.45v-2.68h0.91v4.75l0.65,0.56h1.42
					l0.65-0.56v-4.75h0.91v2.68l0.52,0.45l-0.52,0.45V263l-1.16,1.05H236.9z M238.94,248.72l-0.52,0.45v2.65h-0.91v-2.65l-0.52-0.45
					l0.52-0.45v-1.78h-1.82v-0.91h4.53v0.91h-1.81v1.78L238.94,248.72z M242.25,264.04v-2.64l-0.52-0.45l0.52-0.45v-2.68h0.91v5.32
					h2.85v0.91H242.25z M245.15,251.8v-2.64h-2.59v2.64h-0.91v-2.64l-0.52-0.46l0.52-0.45v-2.68h0.91v2.68h2.59v-2.68h0.91v2.68
					l0.52,0.45l-0.52,0.46v2.64H245.15z M220.66,260.32v2.64l-0.91-0.1v-2.64l-0.52-0.51l0.52-0.4v-2.67l0.91,0.1v2.68l2.59,0.29
					v-2.68l0.91,0.1v2.68l0.52,0.51l-0.52,0.4v2.64l-0.91-0.1v-2.64L220.66,260.32z M209.22,246.34v2.63l-0.91-0.16v-2.64
					l-0.52-0.55l0.52-0.36v-2.68l0.91,0.16v2.68l2.59,0.47v-2.68l0.91,0.16v2.68l0.52,0.55l-0.52,0.37v2.63l-0.91-0.16v-2.64
					L209.22,246.34z M204.53,257.14l0.52-0.34v-2.69l3.02,0.62l1.01,1.38v1.25l-0.58,0.55l0.64,0.81v1.3l-0.98,0.97l-3.11-0.63
					v-2.65L204.53,257.14z M198.75,255.72l0.52-0.33v-2.68l3.02,0.71l1.01,1.41v1.25l-0.57,0.53l0.64,0.82v1.3l-0.98,0.93
					l-3.11-0.73v-2.64L198.75,255.72z M180.51,189.43l-1.42-0.39c0.07-0.11,0.13-0.23,0.2-0.34c0.58-0.87,1.27-1.59,2.07-2.17
					c1.29-0.85,2.65-1.27,4.08-1.27c0.18,0,0.35,0,0.51,0s0.33,0.02,0.52,0.06l-0.1-0.06c0.07,0,0.14,0.01,0.21,0.03
					c0.07,0.02,0.15,0.03,0.21,0.03c0.83,0.19,1.51,0.43,2.03,0.71c0.52,0.29,0.97,0.51,1.34,0.66c0.26,0.16,0.54,0.16,0.85,0.01
					c0.19-0.11,0.35-0.27,0.48-0.46c0.13-0.19,0.2-0.45,0.2-0.8h1.42v10.06l-1.31-0.05c0-0.61-0.06-1.25-0.17-1.9
					c-0.08-0.54-0.19-1.14-0.34-1.82c-0.16-0.68-0.38-1.34-0.68-1.99c-0.07-0.15-0.23-0.42-0.47-0.81c-0.25-0.38-0.58-0.76-1-1.12
					c-0.42-0.37-0.95-0.67-1.58-0.92c-0.63-0.25-1.33-0.32-2.12-0.21c-0.57,0.07-1.12,0.22-1.63,0.44
					c-0.52,0.22-0.95,0.57-1.33,1.07c-0.37,0.49-0.65,1.12-0.87,1.89c-0.2,0.77-0.31,1.74-0.31,2.91v7.1l-3.56-0.77
					c0.01-0.81,0.02-1.6,0.03-2.3c0.03-2.11,0.19-3.85,0.45-5.21c0.01-0.04,0.02-0.07,0.02-0.1l2.46-1.32L180.51,189.43z
					 M189.24,175.27h-4.15l42.53-11.05l0.48,0.5l0.02-0.63l36.33-9.44l0.08,1.4l-72.63,17.96l72.74-16.06l0.06,1.12l-7.78,1.67
					l-11.09,2.38L189.24,175.27z M208.68,230.69c0.16,0.32,0.33,0.52,0.49,0.59c0.25,0.17,0.52,0.22,0.81,0.14v1.74l-7.26-1.33
					v-1.69c0.28,0.18,0.51,0.22,0.71,0.13c0.2-0.01,0.38-0.14,0.56-0.39c0.18-0.25,0.27-0.68,0.27-1.29v-10.76l4.17-1.39v12.86
					C208.43,229.91,208.51,230.37,208.68,230.69z M203.26,247.71l-1.17-1.25v-1.13l0.91,0.17v0.69l0.65,0.68l1.34,0.24l0.65-0.44
					v-0.69l-0.65-0.67l-1.6-0.29l-1.17-1.26v-1.42l1.17-0.82l1.98,0.36l1.17,1.25v1.03l-0.9-0.16v-0.65l-0.61-0.63l-1.29-0.23
					l-0.61,0.4v0.65l0.61,0.64l1.64,0.3l1.17,1.25v1.55l-1.17,0.82L203.26,247.71z M212.23,212.5c-0.46-0.16-0.88-0.28-1.26-0.37
					l-2.55-0.26v3.93l-4.17,0.35v-18.42l0.25,0.15l0.85,0.15l-0.16-1.06l-0.73-0.03l-0.21,0.06v-8.18c0-0.61-0.09-1.07-0.27-1.37
					c-0.18-0.31-0.37-0.51-0.56-0.59c-0.2-0.04-0.43-0.04-0.71,0v-1.57h8.7c1.57,0,2.96,0.29,4.18,0.86
					c1.24,0.58,2.28,1.33,3.12,2.25c0.84,0.93,1.48,2.01,1.9,3.22c0.43,1.22,0.64,2.48,0.64,3.78v7.12h-2.06l0.92,3.7l0.57,0.15
					c-0.21,0.62-0.45,1.22-0.77,1.81c-0.89,1.63-2.26,2.77-4.1,3.42c2.49,1.3,3.76,3.46,3.76,6.47v11.09c0,1.2,0.08,2.24,0.23,3.12
					c0.16,0.89,0.66,1.4,1.51,1.55c0.31,0.05,0.56,0.05,0.75-0.01c0.18-0.06,0.37-0.13,0.55-0.19v1.54
					c-0.27,0.19-0.61,0.34-1.02,0.48c-0.41,0.14-0.94,0.14-1.62,0.02c-0.58-0.11-1.15-0.33-1.73-0.67c-0.57-0.33-1.1-0.8-1.58-1.39
					c-0.48-0.59-0.88-1.31-1.21-2.16c-0.32-0.85-0.51-1.87-0.55-3.06v-11.16c0-1-0.13-1.82-0.39-2.46c-0.26-0.64-0.59-1.14-1-1.5
					C213.14,212.92,212.7,212.66,212.23,212.5z M213.53,259.75l0.91,0.15v0.69l0.65,0.67l1.34,0.22l0.65-0.45v-0.69l-0.65-0.66
					l-1.6-0.27l-1.17-1.23v-1.42l1.17-0.85l1.98,0.32l1.17,1.23v1.03l-0.9-0.15v-0.65l-0.61-0.62l-1.29-0.21l-0.61,0.42v0.65
					l0.61,0.62l1.64,0.27l1.17,1.23v1.55l-1.17,0.85l-2.11-0.35l-1.17-1.23L213.53,259.75L213.53,259.75z M215.9,250.02l-1.18-1.22
					v-1.61l-0.52-0.53l0.52-0.38v-1.64l1.18-0.85l2.22,0.35l1.17,1.22V247l0.52,0.54l-0.52,0.37v1.61l-1.17,0.86L215.9,250.02z
					 M224.4,251.08l-2.21-0.2l-1.17-1.14v-1.61l-0.52-0.5l0.52-0.42v-1.64l1.17-0.93l2.21,0.2l1.16,1.14v1.64l0.52,0.51l-0.52,0.41
					v1.61L224.4,251.08z M169.08,80.07l21.71-8.11c3.27-1.22,6.06-1.83,8.39-1.85s4.22,0.42,5.71,1.29
					c1.47,0.88,2.57,2.07,3.25,3.59c0.7,1.52,1.04,3.21,1.04,5.06v1.87l-0.47-0.02l-1.88,0.55l1.96,1.13l0.4,0.07v7.41
					c0,2.55-0.41,4.94-1.25,7.15c-0.83,2.22-1.83,4.19-2.98,5.91c-1.15,1.72-2.41,3.17-3.75,4.35c-1.36,1.18-2.58,1.99-3.69,2.42
					c1.02-0.39,2.2-0.54,3.55-0.44c1.34,0.1,2.62,0.56,3.82,1.37c1.21,0.81,2.22,2.04,3.05,3.68c0.83,1.65,1.25,3.83,1.25,6.53v9.86
					c0,2.09-0.46,4.26-1.38,6.53c-0.92,2.26-2.12,4.42-3.61,6.49c-1.48,2.06-3.1,3.89-4.86,5.48c-1.77,1.6-3.49,2.73-5.17,3.4
					l-13.34,5.32c-0.85,0.34-1.72,0.68-2.6,1.03h-7.53c0.03-0.03,0.06-0.04,0.1-0.07c0.47-0.35,0.9-0.85,1.27-1.51
					c0.32-0.55,0.5-1.27,0.55-2.14c0,0,5.67-1.26,5.32-2.71c-0.31-1.29-5.3,0-5.3,0v-1.43l2.11-0.12l2.06-0.25l3.91-1.73l-4.12,0.01
					l-1.66-1.15v-1.54h-2.29v-43.69l3.29-1.06l-3.29,0.49V88.87l6.39-2.11h-6.4v-1.68c0-0.87-0.14-1.5-0.38-1.91l3.66-1.21h-6.84
					V80.07z M169.08,162.37l5.66-0.86c-1.82,0.7-3.69,1.43-5.66,2.18V162.37z M165.74,63.24c-0.44,0.19-1.48,1.07-1.78,0.7
					c-0.22-0.27,0.62-0.87,0.77-1.18c0.13-0.28,0.07-1.07,0.37-1.17c0.48-0.16,1.76,0.68,1.66,1.18
					C166.7,63.04,166,63.12,165.74,63.24z M176.58,174.63l-8.12,2.23l13.58-4.74l4.98-0.56L176.58,174.63z M178.97,271.29
					l-1.33-1.98l4.21,1.11L178.97,271.29z M182.56,263.07l-0.47,0.2l1.14-1.98L182.56,263.07z M183.87,273.73l-0.38-0.83l0.96-1.65
					L183.87,273.73z M190.32,256.23l-1.27-3.04l-1.09-0.35v2.64l-0.89-0.29v-2.63l-0.51-0.62l0.51-0.29v-2.68l2.94,0.94l0.99,1.49
					v1.25l-0.99,0.86l1.27,3.04L190.32,256.23z M189.72,225.69c-1.26,0.51-2.69,0.6-4.28,0.29c-1.15-0.19-2.28-0.68-3.4-1.43
					c-1.11-0.76-2-1.74-2.69-2.94c-0.44-0.76-0.77-1.61-1-2.55c-0.22-0.94-0.38-2.06-0.48-3.36c-0.1-1.29-0.15-2.81-0.15-4.57
					c0-1.75,0-3.81,0-6.2c0-1.3,0.01-2.5,0.01-3.63l2.55-0.46l-2.55,0.03c0-0.22,0.01-0.44,0.01-0.66l3.57,0.17v4.9v12.27
					c0,2.35,0.39,4.08,1.17,5.2c0.79,1.13,1.76,1.78,2.91,1.98c0.57,0.1,1.12,0.13,1.62,0.1c0.62-0.12,1.11-0.33,1.46-0.64
					c0.35-0.3,0.61-0.73,0.78-1.29c0.17-0.56,0.27-1.24,0.3-2.03c0.04-0.79,0.06-1.74,0.06-2.84v-8.89c0.04-0.3,0-0.57-0.11-0.81
					c-0.07-0.2-0.22-0.4-0.44-0.61c-0.22-0.21-0.56-0.33-1-0.38l-2.13-0.2v-1.51l8.7,0.81v1.52c-0.27-0.11-0.48-0.13-0.64-0.06
					c-0.16,0.06-0.29,0.19-0.4,0.4c-0.11,0.2-0.17,0.55-0.17,1.05v17.6l-1.38-0.23C192.03,225.72,191.26,225.37,189.72,225.69z
					 M197.25,255.63v1.6l-1.16,0.77l-2.21-0.53l-1.16-1.32v-1.6l-0.52-0.57l0.52-0.33v-2.68l0.91,0.22v4.75l0.65,0.73l1.42,0.34
					l0.65-0.41v-4.75l0.91,0.21v2.68l0.52,0.58L197.25,255.63z M203.53,269.12l-0.91-0.2v-0.89l-0.64-0.67l-1.43-0.31l-0.64,0.42
					v3.29l0.64,0.7l1.43,0.31l0.64-0.39v-0.77l0.91,0.19v1.17l-1.16,0.79l-2.2-0.47l-1.17-1.27v-1.61l-0.52-0.57l0.52-0.34v-1.65
					l1.17-0.78l2.2,0.47l1.16,1.28V269.12z M209.43,271.69v1.6l-1.16,0.81l-2.21-0.43l-1.17-1.26v-1.6l-0.52-0.55l0.52-0.36v-1.64
					l1.17-0.81l2.21,0.43l1.16,1.26v1.64l0.52,0.56L209.43,271.69z M210.32,258.29l0.51-0.36v-2.69l0.89,0.16v2.68l0.51,0.54
					l-0.51,0.37v2.63l-0.89-0.16v-2.63L210.32,258.29z M214.23,303.88l-0.76-0.42l1.05-0.98l0.18,0.77l0.24,1.33L214.23,303.88z
					 M215.12,275.25l-3.76-0.56v-2.64l-0.52-0.53l0.52-0.38v-2.68l0.91,0.14v5.32l2.85,0.42V275.25z M221.07,273.53v1.6l-1.16,0.89
					l-2.21-0.29l-1.17-1.19v-1.61l-0.52-0.52l0.52-0.4v-1.64l1.17-0.88l2.21,0.29l1.16,1.19v1.64l0.52,0.53L221.07,273.53z
					 M226.2,276.63l-1.31-2.76l-1.12-0.11v2.64l-0.92-0.09v-2.64l-0.52-0.51l0.52-0.4v-2.69l3.03,0.29l1.02,1.27v1.25l-1.02,1.07
					l1.31,2.76L226.2,276.63z M226.73,245.99v-0.91l4.58,0.26v0.9l-1.83-0.1v1.78l0.53,0.47l-0.53,0.42v2.64l-0.92-0.05v-2.65
					l-0.52-0.48l0.52-0.42v-1.77L226.73,245.99z M230.66,294l-2.29-0.18V284l2.29,0.18V294z M232.44,271.78l-2.79-0.18v1.77
					l2.21,0.14v0.91l-2.21-0.14v2.65l-0.91-0.06v-2.64l-0.52-0.48l0.52-0.42v-2.68l3.69,0.23V271.78z M241.31,294.26l-2.35-0.05
					v-8.89l-3.38-0.08v8.89l-2.29-0.05v-9.82l2.29,0.05v0.55c0.31-0.37,0.81-0.54,1.82-0.51l1.69,0.04
					c1.22,0.03,2.23,0.53,2.23,1.11L241.31,294.26L241.31,294.26z M251.55,286.6l-2.29,0.11v-1.7l-3.22,0.15v8.18l3.22-0.16v-1.89
					l2.29-0.11v1.74c0,0.58-0.97,1.1-2.19,1.16l-3.39,0.16c-1.22,0.06-2.22-0.37-2.22-0.95v-7.87c0-0.58,1-1.11,2.22-1.16l3.39-0.16
					c1.22-0.06,2.19,0.37,2.19,0.95V286.6z M249.71,276.96v-2.64l-0.52-0.41l0.52-0.49v-2.69l3.02-0.22l1.01,1.1v1.25l-0.58,0.7
					l0.64,0.63v1.3l-0.98,1.24L249.71,276.96z M254.02,262.52l1.34-0.11l0.65-0.62v-0.69l-0.65-0.5l-1.6,0.14l-1.17-0.94v-1.42
					l1.17-1.14l1.98-0.17l1.17,0.93v1.04l-0.9,0.08v-0.65l-0.61-0.46l-1.29,0.11l-0.61,0.56v0.65l0.61,0.47l1.64-0.15l1.17,0.93
					v1.55l-1.17,1.14l-2.11,0.18l-1.17-0.93v-1.13l0.91-0.08v0.69L254.02,262.52z M258.82,247.7l-0.52,0.49v1.61l-1.17,1.13
					l-2.21,0.17l-1.17-0.94v-1.61l-0.52-0.41l0.52-0.5V246l1.17-1.13l2.21-0.17l1.17,0.94v1.64L258.82,247.7z M254.86,293.59
					l-1.61,0.13h-0.01l0.01-1.46l1.61-0.11V293.59z M259.85,273.42v1.6l-1.16,1.17l-2.2,0.23l-1.16-0.92v-1.6l-0.51-0.39l0.51-0.52
					v-2.68l0.91-0.1v4.75l0.64,0.51l1.42-0.15l0.64-0.64v-4.75l0.91-0.1v2.68l0.52,0.41L259.85,273.42z M260.1,249.61v-1.6
					l-0.52-0.38l0.52-0.54v-2.68l0.91-0.14v4.75l0.64,0.47l1.43-0.22l0.65-0.67v-4.75l0.91-0.14v2.68l0.52,0.38l-0.52,0.53v1.6
					l-1.16,1.22l-2.21,0.33L260.1,249.61z M263.09,185.37h4.52v1.62c-0.31-0.08-0.57-0.08-0.79,0.01c-0.22,0.09-0.42,0.29-0.59,0.58
					c-0.18,0.3-0.27,0.78-0.27,1.47c0,0.05,0,0.87,0,2.46c0,1.6,0,3.6,0,6.02s0.01,5.07,0.03,7.95c0.02,2.89,0.04,5.6,0.04,8.16
					s0,4.75,0,6.59c0,1.85,0,2.97,0,3.38c0,2.17,0.14,3.91,0.41,5.23l-4.54,0.67c-0.32-0.89-0.48-1.9-0.48-3.06
					c0-0.18,0-0.85,0-1.99s0-2.61,0-4.4s0-3.78,0-5.97c0-2.19-0.02-4.42-0.03-6.71c-0.02-2.28-0.03-4.51-0.03-6.7
					c0-2.2,0-4.15,0-5.88c0-1.72,0-3.08,0-4.09c0-1,0-1.53,0-1.57c0-0.7-0.11-1.2-0.31-1.5c-0.21-0.3-0.43-0.5-0.67-0.59
					c-0.07-0.03-0.16-0.04-0.26-0.04l2.97-1.6V185.37z M274.18,187.5c-0.15-0.28-0.31-0.46-0.52-0.55c-0.25-0.09-0.51-0.08-0.8,0.01
					v-1.58h7.07v1.52c-0.23-0.08-0.46-0.08-0.69,0.01c-0.19,0.09-0.35,0.27-0.49,0.55c-0.14,0.28-0.2,0.73-0.2,1.37v34.1
					c0,1.37-0.24,2.65-0.73,3.84c-0.49,1.21-1.13,2.29-1.92,3.25c-0.8,0.98-1.69,1.78-2.66,2.41c-0.99,0.64-1.97,1.09-2.93,1.33
					c-1.02,0.25-2.05,0.31-3.08,0.16c-1.05-0.15-2.01-0.53-2.89-1.15c-0.88-0.62-1.58-1.46-2.1-2.49c-0.01-0.02-0.01-0.02-0.02-0.04
					l4.24-1.37c0.17,0.81,0.39,1.46,0.67,1.95c0.71,1.28,1.76,1.75,3.12,1.41l0.07-0.01l0.07-0.02c1.26-0.3,2.24-1.24,2.96-2.82
					c0.71-1.56,1.06-4.02,1.06-7.37v-5.1c0-1.05,0-2.16,0-3.33v-24.66C274.39,188.24,274.32,187.78,274.18,187.5z M267.25,255.51
					l0.98-0.18l1.66,2.28l1.65-2.87l0.98-0.17l-2.21,3.91v2.71l-0.86,0.16v-2.72L267.25,255.51z M266.17,246.62l0.52-0.55v-1.64
					l1.15-1.24l2.17-0.39l1.15,0.83l0.02,1.29l-0.9,0.16v-0.82l-0.64-0.49l-1.41,0.25l-0.64,0.67v3.29l0.64,0.44l1.41-0.25
					l0.64-0.72v-0.66l-1.19,0.21v-0.91l2.09-0.37v2.05l-1.15,1.24l-2.19,0.39l-1.15-0.83v-1.61L266.17,246.62z M265.55,275.29
					l-3.73,0.42v-2.64l-0.52-0.39l0.52-0.52v-2.68l0.9-0.1v5.32l2.83-0.32V275.29z M266.53,260.7l-0.96,1.3l-3.07,0.45v-2.65
					l-0.51-0.38l0.51-0.53v-2.68l2.97-0.44l1,1.02v1.25l-0.57,0.75l0.63,0.59L266.53,260.7L266.53,260.7z M270.91,274.35l-3.75,0.54
					v-2.64l-0.52-0.38l0.52-0.53v-2.68l0.9-0.13v5.32l2.84-0.4V274.35z M276.23,267.82l-2.85,0.62v1.76l2.2-0.47v0.91l-2.2,0.48
					v1.72l2.85-0.62v0.91l-3.76,0.82v-2.64l-0.52-0.34l0.52-0.56v-2.68l3.76-0.82V267.82z M273.86,245.55v2.64l-0.9,0.18v-2.64
					l-0.51-0.36l0.51-0.55v-2.68l0.9-0.18v2.68l2.56-0.51v-2.68l0.9-0.17v2.68l0.51,0.35l-0.51,0.55v2.64l-0.9,0.18v-2.64
					L273.86,245.55z M281.25,266.54l-1.69,0.43v1.77l0.49,0.33l-0.49,0.57v2.65l-0.85,0.21v-2.64l-0.48-0.33l0.48-0.57v-1.77
					l-1.7,0.43v-0.91l4.23-1.08L281.25,266.54L281.25,266.54z M281.57,253.35l-1.81,0.43v1.77l0.52,0.32l-0.52,0.58v2.64l-0.91,0.22
					v-2.65l-0.52-0.32l0.52-0.57v-1.77l-1.82,0.44v-0.91l4.53-1.09L281.57,253.35L281.57,253.35z M287.02,254.45v2.63l-0.84,0.25
					v-2.64l-2.4,0.69v2.64l-0.84,0.24v-2.63l-0.48-0.32l0.48-0.59v-2.68l0.84-0.24v2.68l2.4-0.69v-2.68l0.84-0.25v2.68l0.48,0.31
					L287.02,254.45z M293.15,249.73l-2.77,0.93v1.77l2.13-0.72v0.91l-2.13,0.72v1.73l2.77-0.94v0.91l-3.65,1.23v-2.64l-0.51-0.29
					l0.51-0.62v-2.68l3.65-1.23V249.73z M304.26,199.52c0,0.98-0.16,1.97-0.46,2.96c-0.31,1-0.78,1.93-1.42,2.78
					c-0.64,0.86-1.45,1.58-2.43,2.16c-0.89,0.53-1.91,0.89-3.06,1.1l-0.1-0.48l-1.93,0.19l-2.18,1.27l-0.91,2.25l1.86-1v13.47
					c0,0.55,0.08,0.92,0.22,1.13c0.15,0.22,0.3,0.32,0.45,0.33c0.22,0.06,0.46,0,0.73-0.18v1.5l-6.99,1.82v-1.57
					c0.32,0.04,0.56-0.02,0.72-0.18c0.2-0.09,0.4-0.29,0.59-0.59c0.19-0.31,0.29-0.74,0.29-1.3v-36.27c0-0.59-0.1-1.02-0.29-1.28
					c-0.2-0.26-0.4-0.42-0.59-0.51c-0.16-0.08-0.41-0.08-0.72,0.01v-1.45h8.42c1.33,0,2.48,0.22,3.48,0.67
					c0.93,0.42,1.7,0.99,2.32,1.7l0.4,1.55l0.76,0.2c0.14,0.29,0.27,0.59,0.37,0.9c0.31,0.94,0.46,1.91,0.46,2.92
					c0.04,0.87,0.05,1.85,0.05,2.96C304.31,197.71,304.29,198.68,304.26,199.52z M310.25,253.78l0.04-2.56l0.53,1.84L310.25,253.78z
					 M310.55,162.44l-0.09-0.1l-0.81-0.78l-0.51,1.97l0.69-0.04c-2.71,3.73-6.98,6.52-12.24,8.13l-0.56-0.61
					c10.54-3.53,14.31-13.43,14.31-13.43s-0.16,0.06-0.42,0.13c0.91-1.5,1.2-3.87,0.62-6.36c-0.89-3.82-3.49-6.49-5.8-5.95
					c-2.31,0.54-3.46,4.08-2.57,7.9c0.23,0.99,0.57,1.9,1,2.7c-5.19-4.73-3.75-12.48-3.75-12.48c-6.56,7.56,1.03,18.89,1.03,18.89
					c-7.51-5.3-7.14-19.27-7.14-19.27c-6.03,10.27,2.11,21.37,2.11,21.37c-1.3-0.93-2.38-2.04-3.31-3.26l-0.1-0.37l-0.27-0.15
					c-1.43-2.04-2.45-4.34-3.22-6.71l-0.21-0.83l0.11-1.31l-0.74-0.6c-0.15-0.52-0.28-1.02-0.4-1.49h0.28l-1.27-4.75
					c-4.35,10.61,4,21.5,4,21.5c-2.91-2.14-4.9-5.42-6.28-8.72l0.01-0.04l-0.44-1.62l-0.53-0.63c-2.56-5-2.33-9.42-2.33-9.42
					c-4.59,10.46,3.84,21.24,3.84,21.24c-2.91-1.88-4.84-4.49-6.11-7.23v-1.37l-1.35-2.34c-1.38-5.06-1.02-9.56-1.02-9.56
					c-1.48,2.83-2.01,5.56-1.97,8.07l-0.46,0.61l0.55,0.81c0.28,2.74,1.19,5.17,2.21,7.11l-0.26,0.34l0.71,0.49
					c1.42,2.48,2.87,3.97,2.87,3.97c-12.33-7.47-6.6-24.65-6.6-24.65c-9.67,11.05-1.12,25.32,5.63,27.24
					c6.16,1.76,11.23,1.72,15.38,0.72l-0.19,0.76c-1.95,0.42-3.7,0.93-5.84,1.04l-1-0.19l-40.41,0.8l26.67-2.68l1.85,0.65
					l-16.18,1.23l22.17-0.45l-3.76-0.9c-1.52-0.86-4.16-2.37-6.14-4.56l-0.11,0.02c-0.3-0.33-0.58-0.65-0.83-0.98l0.19-0.02
					l-0.86-0.86c-0.42-0.58-0.75-1.13-1.02-1.6l0.11-0.02c-1.15-2.01-2.04-4.4-2.37-7.23c-0.91-7.62,3.17-12.68,6.25-15.35
					c-0.77,0.49-1.58,1.03-2.41,1.62l0.17-0.16l-17.89,6.15l-4.24-0.19l24.36-8.51l0.4,0.4l2.33-0.19l-1.14-0.76l1.35-0.47
					c0.15-0.08,0.23-0.13,0.23-0.13c0.73-0.26,1.44-0.49,2.16-0.7l0.1-0.04c0,0-0.03,0.01-0.03,0.02
					c6.03-1.85,11.59-2.45,16.39-1.98l-0.59,0.49l3.1,0.33l-0.08-0.47c8.47,1.55,14.13,6.76,15.06,14.53
					C313.44,155.42,312.54,159.23,310.55,162.44z M313.91,241.87l0.62,2.2l-0.41-0.31L313.91,241.87z M314.53,250.8l-0.15-4.74
					l0.69,2.84L314.53,250.8z M321.98,133.74l-0.76-0.42l1.05-0.98l0.18,0.77l0.24,1.33L321.98,133.74z"/>
				<polygon points="263.4,259.7 263.4,261.41 265.14,261.16 265.63,260.44 265.63,259.92 265.14,259.45 				"/>
				<path d="M299.21,188.45c-0.41-0.41-0.82-0.73-1.27-0.97c-0.45-0.25-0.83-0.37-1.16-0.36l-3.15,0.03v20.29l3.15-0.43
					c0.32-0.04,0.71-0.19,1.16-0.44c0.44-0.25,0.87-0.63,1.27-1.15c0.4-0.52,0.75-1.13,1.04-1.84c0.29-0.7,0.44-1.55,0.44-2.56
					v-8.42c0-0.97-0.15-1.8-0.44-2.49C299.96,189.41,299.61,188.86,299.21,188.45z"/>
				<polygon points="292.36,206.73 291.33,207.03 292.39,207.65 293.55,207.26 293.08,206.77 				"/>
				<polygon points="293.35,136.98 294.24,136.98 293.94,136.62 				"/>
				<path d="M289.55,89.89c0,0.19,0.31,0.23,0.41,0.18c0.08-0.04,0.2-0.27,0.1-0.34C289.95,89.65,289.55,89.69,289.55,89.89z"/>
			</g>
		</g>
	</g>
</g>
</svg>
